<?xml version="1.0" encoding="utf-8"?>
<!-- Generator: Adobe Illustrator 22.1.0, SVG Export Plug-In . SVG Version: 6.00 Build 0)  -->
<svg version="1.1" id="Layer_1" xmlns="http://www.w3.org/2000/svg" xmlns:xlink="http://www.w3.org/1999/xlink" x="0px" y="0px"
	 viewBox="0 0 36 36" style="enable-background:new 0 0 36 36;" xml:space="preserve">
<style type="text/css">
	.st0{fill:#FFAC33;}
	.st1{fill:#3B88C3;}
	.st2{fill:#FFDC5D;}
	.st3{fill:#F9CA55;}
	.st4{fill:#DF1F32;}
	.st5{fill:#662113;}
	.st6{fill:#C1694F;}
	.st7{fill:#292F33;}
	.st8{fill:#CCD6DD;}
	.st9{fill:#F5F8FA;}
</style>
<path class="st0" d="M18,2.3c4.2,0,11.3,2.1,11.3,11.3s0,11.3-2.1,11.3s-5-2.1-9.2-2.1s-7,2.1-9.2,2.1c-2.4,0-2.1-8.5-2.1-11.3
	C6.7,4.4,13.8,2.3,18,2.3z"/>
<path class="st1" d="M32,36v-4c0-3.3-2.7-6-6-6H10c-3.3,0-6,2.7-6,6v4H32z"/>
<path class="st2" d="M14,26l4,5l4-5v-4h-8V26z"/>
<path class="st3" d="M14,24c1.2,1.4,2.4,1.7,4,1.7c1.6,0,2.8-0.3,4-1.7v-4h-8V24z"/>
<path class="st2" d="M9.5,15c0-5.6,3.8-10.1,8.5-10.1s8.5,4.5,8.5,10.1S22.7,25.1,18,25.1C13.3,25.1,9.5,20.5,9.5,15"/>
<path class="st0" d="M7.4,17.2c0-0.2,0-0.5,0-0.7c0-3.5,2.1,0.4,2.1-2.1c0-2.5,1.4-2.8,2.8-4.2C13,9.4,14.5,8,14.5,8
	s3.5,2.1,6.4,2.1s5.7,1.4,5.7,4.2s2.1-1.4,2.1,2.1c0,0.3,0,0.5,0,0.7h0.7c0-1,0-2.2,0-3.5c0-9.2-7.1-12.7-11.3-12.7
	S6.7,4.4,6.7,13.6c0,0.8,0,2.1,0,3.5H7.4z"/>
<path class="st2" d="M11.4,13.9c0,1.4-0.7,2.6-1.6,2.6s-1.6-1.2-1.6-2.6s0.7-2.6,1.6-2.6C10.7,11.3,11.4,12.5,11.4,13.9 M27.8,13.9
	c0,1.4-0.7,2.6-1.6,2.6c-0.9,0-1.6-1.2-1.6-2.6s0.7-2.6,1.6-2.6C27.1,11.3,27.8,12.5,27.8,13.9"/>
<path class="st4" d="M18,21.8c-2.8,0-3.6-0.7-3.7-0.8c-0.3-0.3-0.3-0.7,0-0.9c0.2-0.2,0.6-0.3,0.9,0c0.1,0,0.7,0.5,2.8,0.5
	c2.2,0,2.8-0.5,2.8-0.5c0.3-0.3,0.7-0.2,0.9,0c0.3,0.3,0.2,0.7,0,0.9C21.6,21.1,20.8,21.8,18,21.8"/>
<path class="st5" d="M14,15c-0.6,0-1-0.4-1-1v-1c0-0.6,0.4-1,1-1s1,0.4,1,1v1C15,14.6,14.6,15,14,15 M22,15c-0.5,0-1-0.4-1-1v-1
	c0-0.6,0.5-1,1-1s1,0.4,1,1v1C23,14.6,22.5,15,22,15"/>
<path class="st6" d="M18.8,17.8h-1.5c-0.4,0-0.8-0.3-0.8-0.8s0.3-0.8,0.8-0.8h1.5c0.4,0,0.8,0.3,0.8,0.8S19.2,17.8,18.8,17.8"/>
<path class="st7" d="M10,32.5H8c0-4.1,1.9-8.5,6-8.5v2C10.8,26,10,30.3,10,32.5z M27,28.5h-2c0-0.4-0.5-2.5-3-2.5v-2
	C25.5,24,27,26.9,27,28.5z"/>
<circle class="st8" cx="9" cy="32.5" r="3"/>
<circle class="st9" cx="9" cy="32.5" r="2"/>
<path class="st7" d="M30,34h-2c0-0.8-0.1-5-2.2-5s-2.2,4.2-2.2,5h-2c0-4.4,1.6-7,4.2-7S30,29.6,30,34z"/>
<circle class="st8" cx="22.5" cy="34" r="1"/>
<circle class="st8" cx="29" cy="34" r="1"/>
</svg>
