<?xml version="1.0" encoding="utf-8"?>
<!-- Generator: Adobe Illustrator 22.1.0, SVG Export Plug-In . SVG Version: 6.00 Build 0)  -->
<svg version="1.1" id="Layer_1" xmlns="http://www.w3.org/2000/svg" xmlns:xlink="http://www.w3.org/1999/xlink" x="0px" y="0px"
	 viewBox="0 0 36 36" style="enable-background:new 0 0 36 36;" xml:space="preserve">
<style type="text/css">
	.st0{fill:#3E721D;}
	.st1{fill:#FFAC33;}
	.st2{fill:#FFDC5D;}
	.st3{fill:#F9CA55;}
	.st4{fill:#DF1F32;}
	.st5{fill:#662113;}
	.st6{fill:#C1694F;}
	.st7{fill:#77B255;}
	.st8{fill:#226699;}
	.st9{fill:#66757F;}
	.st10{fill:#292F33;}
</style>
<path class="st0" d="M18,27h8l-4,7L18,27"/>
<path class="st1" d="M21.9,5.1C26,5.1,32.9,7.1,32.9,16c0,8.9,0,10.9-2.1,10.9s-4.8-2.1-8.9-2.1S15.2,27,13,27
	C10.8,27,11,18.8,11,16C11,7.1,17.8,5.1,21.9,5.1"/>
<path class="st2" d="M18.3,27c1.5,1.1,3,1,3.7,1s2.2,0.1,3.7-1v-3.2h-7.3C18.3,23.8,18.3,27,18.3,27z"/>
<path class="st3" d="M18.3,25.2c1,1.2,2.3,1.5,3.7,1.5c1.4,0,2.6-0.3,3.7-1.5v-2.9h-7.3V25.2z"/>
<path class="st2" d="M13.7,15.7c0-5.8,3.7-10.6,8.2-10.6c4.5,0,8.2,4.7,8.2,10.6c0,5.8-3.7,10.3-8.2,10.3
	C17.4,26,13.7,21.6,13.7,15.7"/>
<path class="st4" d="M21.9,23.5c-1.6,0-2.4-0.8-2.5-0.9c-0.3-0.3-0.3-0.7,0-1c0.3-0.3,0.7-0.3,1,0c0,0,0.6,0.5,1.6,0.5
	c1,0,1.6-0.5,1.6-0.5c0.3-0.3,0.7-0.2,1,0c0.3,0.3,0.3,0.7,0,1C24.4,22.7,23.6,23.5,21.9,23.5"/>
<path class="st1" d="M11.7,19c0-1,0-0.2,0-0.5c0-3.4,2.1,0.5,2.1-1.9c0-2.4,1.4-2.7,2.7-4.1c0.7-0.7,2.1-2,2.1-2s3.4,2.1,6.2,2.1
	c2.7,0,5.5,1.4,5.5,4.1c0,2.7,2.1-1.6,2.1,1.8c0,0.2,0-0.5,0,0.5h0.7c0-2,0-1.9,0-3.2c0-8.9-6.8-10.7-10.9-10.7
	C17.8,5.1,11,6.8,11,15.7c0,0.8,0,1.3,0,3.3C11,19,11.7,19,11.7,19z"/>
<path class="st5" d="M18.6,17.9c-0.5,0-0.8-0.4-0.8-0.8v-0.8c0-0.5,0.4-0.8,0.8-0.8c0.5,0,0.8,0.4,0.8,0.8V17
	C19.5,17.5,19.1,17.9,18.6,17.9 M25.4,17.9c-0.5,0-0.8-0.4-0.8-0.8v-0.8c0-0.5,0.4-0.8,0.8-0.8s0.8,0.4,0.8,0.8V17
	C26.2,17.5,25.8,17.9,25.4,17.9"/>
<path class="st6" d="M22.8,20.5h-1.7c-0.2,0-0.4-0.2-0.4-0.4v-0.2c0-0.2,0.2-0.4,0.4-0.4h1.7c0.2,0,0.4,0.2,0.4,0.4v0.2
	C23.3,20.3,23.1,20.5,22.8,20.5"/>
<path class="st2" d="M15.4,15.9c0,1.4-0.7,2.6-1.6,2.6s-1.6-1.2-1.6-2.6s0.7-2.6,1.6-2.6C14.7,13.3,15.4,14.5,15.4,15.9 M31.8,15.9
	c0,1.4-0.7,2.6-1.6,2.6c-0.9,0-1.6-1.2-1.6-2.6s0.7-2.6,1.6-2.6C31.1,13.3,31.8,14.5,31.8,15.9"/>
<path class="st7" d="M31,27.6c-1-0.4-2-0.6-3-0.6H16c-1,0-2,0.2-3,0.6c-2.2,0.9-4,2.6-4,4.9V36h26v-3.5C35,30.2,33.2,28.4,31,27.6z"
	/>
<path class="st8" d="M28,27v7.5H16V27c-1,0-2,0.2-3,0.6V36h18v-8.4C30,27.2,29,27,28,27z"/>
<path class="st6" d="M7,31.8c0-0.7-0.6-1.2-1.2-1.2s-1.2,0.6-1.2,1.2V36H7V31.8z"/>
<path class="st9" d="M10.8,13.5c-0.4,0-0.8,0.3-0.8,0.8v8.5l0,0c0,2.1-1.5,3.8-3.5,4.2V14.2c0-0.4-0.3-0.8-0.8-0.8S5,13.8,5,14.2
	v12.7c-2-0.4-3.5-2.1-3.5-4.2l0,0v-8.5c0-0.4-0.3-0.8-0.8-0.8S0,13.8,0,14.2v8.5c0,2.9,2.2,5.3,5,5.7V31c0,0.4,0.3,0.8,0.8,0.8
	s0.8-0.3,0.8-0.8v-2.6c2.8-0.4,5-2.8,5-5.7v-8.5C11.5,13.8,11.2,13.5,10.8,13.5z"/>
<path class="st6" d="M30,8.8c0,1.3-3.1,2.2-8,2.2c-4.9,0-8-0.9-8-2.2C14,5.3,18,0,19.3,0c1.3,0,2.2,1.8,2.7,1.8S23.3,0,24.7,0
	C26,0,30,5.3,30,8.8z"/>
<path class="st6" d="M36,8c0,1.7-3.5,6-14,6S8,9.7,8,8s6.8-1,14-1S36,6.3,36,8z"/>
<path class="st10" d="M30,8.8c0,1.3-3.1,2.2-8,2.2c-4.9,0-8-0.9-8-2.2c0-0.6,0.1-1.2,0.3-1.8c2.4,2,13.1,2,15.4,0
	C29.9,7.6,30,8.2,30,8.8z"/>
</svg>
