<?xml version="1.0" encoding="UTF-8" standalone="no"?>
<svg width="100px" height="350px" viewBox="0 0 100 350" version="1.1" xmlns="http://www.w3.org/2000/svg" xmlns:xlink="http://www.w3.org/1999/xlink" xmlns:sketch="http://www.bohemiancoding.com/sketch/ns">
    <!-- Generator: Sketch 3.3.3 (12072) - http://www.bohemiancoding.com/sketch -->
    <title>nav-sprites-light</title>
    <desc>Created with Sketch.</desc>
    <defs></defs>
    <g id="Page-1" stroke="none" stroke-width="1" fill="none" fill-rule="evenodd" sketch:type="MSPage">
        <g id="nav-sprites-light" sketch:type="MSArtboardGroup" fill="#FFFFFF">
            <path d="M20.9873424,3 L5.93395386,3 C5.41806339,3 5,3.41806495 5,3.93389396 L5,18.9874023 C5,19.5031679 5.41806339,19.9212963 5.93395386,19.9212963 L14.0381957,19.9212963 L14.0381957,13.3685054 L11.8330603,13.3685054 L11.8330603,10.8147207 L14.0381957,10.8147207 L14.0381957,8.93139956 C14.0381957,6.74578337 15.3730948,5.55568673 17.3227892,5.55568673 C18.2566797,5.55568673 19.059331,5.62523742 19.2932791,5.65630382 L19.2932791,7.94038147 L17.9410716,7.94101548 C16.880697,7.94101548 16.675406,8.44486173 16.675406,9.184242 L16.675406,10.8147207 L19.2042013,10.8147207 L18.8749621,13.3685054 L16.675406,13.3685054 L16.675406,19.9212963 L20.9873424,19.9212963 C21.5031061,19.9212963 21.9212963,19.5031679 21.9212963,18.9874023 L21.9212963,3.93389396 C21.9212963,3.41806495 21.5031061,3 20.9873424,3" id="Imported-Layers-2" sketch:type="MSShapeGroup"></path>
            <path d="M21.9246032,54.8920585 C21.2283135,55.212761 20.4801508,55.4298146 19.6947421,55.5272195 C20.4962103,55.0278634 21.1118254,54.2373073 21.401877,53.2950244 C20.6514524,53.7575415 19.8207302,54.0932293 18.93625,54.2739902 C18.2280476,53.4898341 17.2190873,53 16.1020833,53 C13.9581746,53 12.2195992,54.806439 12.2195992,57.0347317 C12.2195992,57.3510634 12.2539802,57.6588878 12.3200278,57.9541463 C9.09334524,57.7860293 6.2324127,56.1796293 4.31755952,53.7385756 C3.9833254,54.334322 3.79181746,55.0274732 3.79181746,55.7670634 C3.79181746,57.1668683 4.47725,58.4019122 5.51900794,59.1254244 C4.88265873,59.1045854 4.28393254,58.9228878 3.76052778,58.6206049 C3.76015079,58.6374634 3.76015079,58.654478 3.76015079,58.6714927 C3.76015079,60.6263805 5.09844444,62.2570537 6.87456746,62.6277073 C6.54885317,62.7201171 6.20579762,62.7694439 5.85180952,62.7694439 C5.60149206,62.7694439 5.3582619,62.744078 5.12121429,62.6969366 C5.61521429,64.2999024 7.04911111,65.4664976 8.74817857,65.4989659 C7.41938492,66.5812683 5.74527381,67.2263415 3.9261746,67.2263415 C3.61275,67.2263415 3.30369841,67.2072195 3,67.1699122 C4.71829365,68.3146537 6.75913492,68.9827512 8.9516746,68.9827512 C16.0931111,68.9827512 19.9984405,62.8345366 19.9984405,57.5025561 C19.9984405,57.3276488 19.994746,57.153678 19.9872817,56.9806439 C20.7459246,56.4117463 21.4042143,55.7011122 21.9246032,54.8920585" id="Imported-Layers-3" sketch:type="MSShapeGroup"></path>
            <path d="M6.25746875,104 C5.01070318,104 4,105.001689 4,106.25137 L4,113.49735 C4,114.740747 5.00858051,115.74872 6.25823883,115.74872 L11.5951743,115.74872 L10.3805033,120 L16.5881048,115.74872 L18.7423547,115.74872 C19.9892178,115.74872 21,114.747031 21,113.49735 L21,106.25137 C21,105.007973 19.987483,104 18.7425313,104 L6.25746875,104 Z" id="Rectangle-2" sketch:type="MSShapeGroup"></path>
            <path d="M15.5644871,165.754263 C15.6867276,165.882907 15.87882,165.882907 16.0010606,165.754263 C20.1223144,161.435509 20.1223144,154.415237 16.0010606,150.096483 C15.87882,149.967839 15.6867276,149.967839 15.5644871,150.096483 L14.6738771,151.033744 C14.5516365,151.162388 14.5516365,151.364543 14.6738771,151.493186 C18.0442245,155.040078 18.0442245,160.810668 14.6738771,164.35756 C14.5516365,164.486204 14.5516365,164.688358 14.6738771,164.83538 L15.5644871,165.754263 Z M13.5562489,163.181389 C16.3153935,160.277716 16.3153935,155.57303 13.5562489,152.669358 C13.4340084,152.540714 13.241916,152.540714 13.1196754,152.669358 L12.2290655,153.606619 C12.1068249,153.735263 12.1068249,153.937417 12.2290655,154.066061 C14.2547665,156.197872 14.2547665,159.652875 12.2290655,161.784685 C12.1068249,161.913329 12.1068249,162.115483 12.2290655,162.262505 L13.1196754,163.181389 C13.241916,163.310032 13.4340084,163.310032 13.5562489,163.181389 L13.5562489,163.181389 Z M10.7134439,151.655231 C10.7134439,151.526588 10.6435922,151.397944 10.5213516,151.342811 C10.399111,151.306055 10.2594075,151.324433 10.1720928,151.416321 L7.06025864,154.948189 L4.31433292,154.9797 C4.13970352,154.9797 4,155.126722 4,155.310499 L4,160.60327 C4,160.787046 4.13970352,160.934068 4.31433292,160.934068 L7.06025864,160.902557 L10.1720928,164.464472 C10.2594075,164.55636 10.399111,164.574738 10.5213516,164.537983 C10.6435922,164.48285 10.7134439,164.354206 10.7134439,164.225562 L10.7134439,151.655231 Z" id="sound-on-copy" sketch:type="MSShapeGroup"></path>
            <g id="sound-off-copy" sketch:type="MSLayerGroup" transform="translate(4.000000, 201.000000)">
                <path d="M6.71344393,0.774634238 C6.71344393,0.6459905 6.64359217,0.517346763 6.52135159,0.462213732 C6.399111,0.425458378 6.25940748,0.443836055 6.17209278,0.535724439 L3.06025864,4.06759247 L0.31433292,4.09910346 C0.13970352,4.09910346 0,4.24612488 0,4.42990165 L0,9.72267258 C0,9.90644934 0.13970352,10.0534708 0.31433292,10.0534708 L3.06025864,10.0219598 L6.17209278,13.583875 C6.25940748,13.6757634 6.399111,13.6941411 6.52135159,13.6573857 C6.64359217,13.6022527 6.71344393,13.4736089 6.71344393,13.3449652 L6.71344393,0.774634238 Z" id="sound" sketch:type="MSShapeGroup"></path>
                <path d="M14.9610112,9.02613384 L13.0308371,6.99892081 L14.9610112,4.97170778 C14.9872127,4.93501614 15.0046803,4.8983245 15.0046803,4.85245996 C15.0046803,4.80659541 14.9872127,4.76990377 14.9610112,4.73321213 L13.8518161,3.56825261 C13.8168808,3.54073388 13.7819456,3.52238806 13.7382765,3.52238806 C13.6946074,3.52238806 13.6596721,3.54073388 13.6247368,3.56825261 L11.6945626,5.59546564 L9.76438848,3.56825261 C9.7294532,3.54073388 9.69451792,3.52238806 9.65084883,3.52238806 C9.60717973,3.52238806 9.57224445,3.54073388 9.53730917,3.56825261 L8.42811406,4.73321213 C8.4019126,4.76990377 8.38444496,4.80659541 8.38444496,4.85245996 C8.38444496,4.8983245 8.4019126,4.93501614 8.42811406,4.97170778 L10.3582882,6.99892081 L8.42811406,9.02613384 C8.4019126,9.06282548 8.38444496,9.09951711 8.38444496,9.14538166 C8.38444496,9.19124621 8.4019126,9.22793785 8.42811406,9.26462949 L9.53730917,10.429589 C9.57224445,10.4571077 9.60717973,10.4754536 9.65084883,10.4754536 C9.69451792,10.4754536 9.7294532,10.4571077 9.76438848,10.429589 L11.6945626,8.40237598 L13.6247368,10.429589 C13.6596721,10.4571077 13.6946074,10.4754536 13.7382765,10.4754536 C13.7819456,10.4754536 13.8168808,10.4571077 13.8518161,10.429589 L14.9610112,9.26462949 C14.9872127,9.22793785 15.0046803,9.19124621 15.0046803,9.14538166 C15.0046803,9.09951711 14.9872127,9.06282548 14.9610112,9.02613384 L14.9610112,9.02613384 Z" id="delete" sketch:type="MSShapeGroup"></path>
            </g>
        </g>
    </g>
</svg>