<?xml version="1.0" encoding="UTF-8" standalone="no"?>
<svg width="100px" height="350px" viewBox="0 0 100 350" version="1.1" xmlns="http://www.w3.org/2000/svg" xmlns:xlink="http://www.w3.org/1999/xlink" xmlns:sketch="http://www.bohemiancoding.com/sketch/ns">
    <!-- Generator: Sketch 3.3.3 (12072) - http://www.bohemiancoding.com/sketch -->
    <title>nav-sprites-dark</title>
    <desc>Created with Sketch.</desc>
    <defs></defs>
    <g id="Page-1" stroke="none" stroke-width="1" fill="none" fill-rule="evenodd" sketch:type="MSPage">
        <g id="nav-sprites-dark" sketch:type="MSArtboardGroup" fill="#242424">
            <path d="M20.9873424,3 L5.93395386,3 C5.41806339,3 5,3.41806495 5,3.93389396 L5,18.9874023 C5,19.5031679 5.41806339,19.9212963 5.93395386,19.9212963 L14.0381957,19.9212963 L14.0381957,13.3685054 L11.8330603,13.3685054 L11.8330603,10.8147207 L14.0381957,10.8147207 L14.0381957,8.93139956 C14.0381957,6.74578337 15.3730948,5.55568673 17.3227892,5.55568673 C18.2566797,5.55568673 19.059331,5.62523742 19.2932791,5.65630382 L19.2932791,7.94038147 L17.9410716,7.94101548 C16.880697,7.94101548 16.675406,8.44486173 16.675406,9.184242 L16.675406,10.8147207 L19.2042013,10.8147207 L18.8749621,13.3685054 L16.675406,13.3685054 L16.675406,19.9212963 L20.9873424,19.9212963 C21.5031061,19.9212963 21.9212963,19.5031679 21.9212963,18.9874023 L21.9212963,3.93389396 C21.9212963,3.41806495 21.5031061,3 20.9873424,3" id="facebook" sketch:type="MSShapeGroup"></path>
            <path d="M21.9246032,54.8920585 C21.2283135,55.212761 20.4801508,55.4298146 19.6947421,55.5272195 C20.4962103,55.0278634 21.1118254,54.2373073 21.401877,53.2950244 C20.6514524,53.7575415 19.8207302,54.0932293 18.93625,54.2739902 C18.2280476,53.4898341 17.2190873,53 16.1020833,53 C13.9581746,53 12.2195992,54.806439 12.2195992,57.0347317 C12.2195992,57.3510634 12.2539802,57.6588878 12.3200278,57.9541463 C9.09334524,57.7860293 6.2324127,56.1796293 4.31755952,53.7385756 C3.9833254,54.334322 3.79181746,55.0274732 3.79181746,55.7670634 C3.79181746,57.1668683 4.47725,58.4019122 5.51900794,59.1254244 C4.88265873,59.1045854 4.28393254,58.9228878 3.76052778,58.6206049 C3.76015079,58.6374634 3.76015079,58.654478 3.76015079,58.6714927 C3.76015079,60.6263805 5.09844444,62.2570537 6.87456746,62.6277073 C6.54885317,62.7201171 6.20579762,62.7694439 5.85180952,62.7694439 C5.60149206,62.7694439 5.3582619,62.744078 5.12121429,62.6969366 C5.61521429,64.2999024 7.04911111,65.4664976 8.74817857,65.4989659 C7.41938492,66.5812683 5.74527381,67.2263415 3.9261746,67.2263415 C3.61275,67.2263415 3.30369841,67.2072195 3,67.1699122 C4.71829365,68.3146537 6.75913492,68.9827512 8.9516746,68.9827512 C16.0931111,68.9827512 19.9984405,62.8345366 19.9984405,57.5025561 C19.9984405,57.3276488 19.994746,57.153678 19.9872817,56.9806439 C20.7459246,56.4117463 21.4042143,55.7011122 21.9246032,54.8920585" id="twitter" sketch:type="MSShapeGroup"></path>
            <path d="M6.25746875,104 C5.01070318,104 4,105.001689 4,106.25137 L4,113.49735 C4,114.740747 5.00858051,115.74872 6.25823883,115.74872 L11.5951743,115.74872 L10.3805033,120 L16.5881048,115.74872 L18.7423547,115.74872 C19.9892178,115.74872 21,114.747031 21,113.49735 L21,106.25137 C21,105.007973 19.987483,104 18.7425313,104 L6.25746875,104 Z" id="comments" sketch:type="MSShapeGroup"></path>
            <path d="M17.7927878,167.890435 C17.9385823,168.036522 18.1676879,168.036522 18.3134824,167.890435 C23.2288392,162.986087 23.2288392,155.013913 18.3134824,150.109565 C18.1676879,149.963478 17.9385823,149.963478 17.7927878,150.109565 L16.7305709,151.173913 C16.5847764,151.32 16.5847764,151.549565 16.7305709,151.695652 C20.750333,155.723478 20.750333,162.276522 16.7305709,166.304348 C16.5847764,166.450435 16.5847764,166.68 16.7305709,166.846957 L17.7927878,167.890435 Z M15.3975928,164.968696 C18.6883825,161.671304 18.6883825,156.328696 15.3975928,153.031304 C15.2517983,152.885217 15.0226927,152.885217 14.8768982,153.031304 L13.8146813,154.095652 C13.6688868,154.241739 13.6688868,154.471304 13.8146813,154.617391 C16.2307041,157.038261 16.2307041,160.961739 13.8146813,163.382609 C13.6688868,163.528696 13.6688868,163.758261 13.8146813,163.925217 L14.8768982,164.968696 C15.0226927,165.114783 15.2517983,165.114783 15.3975928,164.968696 L15.3975928,164.968696 Z M12.0070225,151.879669 C12.0070225,151.733582 11.9237113,151.587495 11.7779169,151.524887 C11.6321224,151.483148 11.4655001,151.504017 11.3613612,151.608365 L7.64992394,155.61913 L4.37490009,155.654914 C4.16662226,155.654914 4,155.821871 4,156.030566 L4,162.041001 C4,162.249697 4.16662226,162.416653 4.37490009,162.416653 L7.64992394,162.38087 L11.3613612,166.425756 C11.4655001,166.530104 11.6321224,166.550974 11.7779169,166.509235 C11.9237113,166.446626 12.0070225,166.300539 12.0070225,166.154452 L12.0070225,151.879669 Z" id="sound-on" sketch:type="MSShapeGroup"></path>
            <g id="sound-off" sketch:type="MSLayerGroup" transform="translate(4.000000, 201.000000)">
                <path d="M8.00702247,0.879669389 C8.00702247,0.733582433 7.92371134,0.587495476 7.77791686,0.52488678 C7.63212238,0.48314765 7.46550012,0.504017215 7.3613612,0.608365041 L3.64992394,4.61913043 L0.374900094,4.6549141 C0.166622264,4.6549141 0,4.82187063 0,5.03056628 L0,11.0410011 C0,11.2496967 0.166622264,11.4166532 0.374900094,11.4166532 L3.64992394,11.3808696 L7.3613612,15.4257563 C7.46550012,15.5301042 7.63212238,15.5509737 7.77791686,15.5092346 C7.92371134,15.4466259 8.00702247,15.300539 8.00702247,15.154452 L8.00702247,0.879669389 Z" id="sound" sketch:type="MSShapeGroup"></path>
                <path d="M17.8437706,10.2500164 L15.5416812,7.94792702 L17.8437706,5.64583765 C17.8750207,5.60417087 17.895854,5.5625041 17.895854,5.51042063 C17.895854,5.45833716 17.8750207,5.41667038 17.8437706,5.37500361 L16.5208504,4.05208347 C16.4791837,4.02083339 16.4375169,4 16.3854334,4 C16.3333499,4 16.2916832,4.02083339 16.2500164,4.05208347 L13.947927,6.35417284 L11.6458376,4.05208347 C11.6041709,4.02083339 11.5625041,4 11.5104206,4 C11.4583372,4 11.4166704,4.02083339 11.3750036,4.05208347 L10.0520835,5.37500361 C10.0208334,5.41667038 10,5.45833716 10,5.51042063 C10,5.5625041 10.0208334,5.60417087 10.0520835,5.64583765 L12.3541728,7.94792702 L10.0520835,10.2500164 C10.0208334,10.2916832 10,10.3333499 10,10.3854334 C10,10.4375169 10.0208334,10.4791837 10.0520835,10.5208504 L11.3750036,11.8437706 C11.4166704,11.8750207 11.4583372,11.895854 11.5104206,11.895854 C11.5625041,11.895854 11.6041709,11.8750207 11.6458376,11.8437706 L13.947927,9.5416812 L16.2500164,11.8437706 C16.2916832,11.8750207 16.3333499,11.895854 16.3854334,11.895854 C16.4375169,11.895854 16.4791837,11.8750207 16.5208504,11.8437706 L17.8437706,10.5208504 C17.8750207,10.4791837 17.895854,10.4375169 17.895854,10.3854334 C17.895854,10.3333499 17.8750207,10.2916832 17.8437706,10.2500164 L17.8437706,10.2500164 Z" id="delete" sketch:type="MSShapeGroup"></path>
            </g>
        </g>
    </g>
</svg>