<?xml version="1.0" encoding="UTF-8"?>
<svg width="575px" height="75px" viewBox="0 0 575 75" version="1.1" xmlns="http://www.w3.org/2000/svg" xmlns:xlink="http://www.w3.org/1999/xlink">
    <!-- Generator: Sketch 46.2 (44496) - http://www.bohemiancoding.com/sketch -->
    <title>ProPublica-wordmark-B&amp;W</title>
    <desc>Created with Sketch.</desc>
    <defs></defs>
    <g id="Page-1" stroke="none" stroke-width="1" fill="none" fill-rule="evenodd">
        <g id="ProPublica-wordmark-B&amp;W" fill-rule="nonzero" fill="#000000">
            <path d="M66.4,13.48 L66,14.91 L72.23,26.36 L73.38,26.83 L75,26.29 L75,75 L50.95,75 C58.1086808,67.3841529 62.1051783,57.3321396 62.13,46.88 C62.1323047,41.2843294 60.9781684,35.7485609 58.74,30.62 C61.1608394,28.7083418 63.7711291,27.0496853 66.53,25.67 L68.22,25.47 L68.36,25.06 L65,18.83 L64.5,18.83 L63.62,20.12 C60.71,22.02 58.95,22.42 55.08,23.91 C47.3866173,12.3136922 34.3761586,5.36500986 20.46,5.42 C13.2697214,5.37156792 6.2001726,7.26852898 -7.10542736e-15,10.91 L-7.10542736e-15,0 L75,0 L75,8.81 L66.4,13.48 Z M57.32,47 C57.2857024,57.7136988 52.6753765,67.9022644 44.65,75 L-3.55271368e-15,75 L-3.55271368e-15,16 C11.3786709,8.52232267 25.9448562,7.89832025 37.92134,14.3754835 C49.8978239,20.8526468 57.3491554,33.3842386 57.32,47 Z M43.7,37.06 C43.7,28.93 37.7,25.06 25.95,25.06 L7.18,25.06 L7.18,28.72 L11.38,29.67 L11.38,62.2 L7.18,63.15 L7.18,66.88 L27.85,66.88 L27.85,63.14 L20.67,62.19 L20.67,50.14 L25.82,50.14 C37.26,50.14 43.7,45.53 43.7,37.06 Z M33.94,37.33 C33.94,42.48 31.16,45.66 26.69,45.66 L20.69,45.66 L20.69,29.47 L27,29.47 C31.37,29.47 33.94,32.32 33.94,37.33 L33.94,37.33 Z" id="Shape"></path>
            <path d="M116.53,60.07 L125.68,61.15 L125.68,65.35 L99.39,65.35 L99.39,61.15 L104.67,59.79 L104.67,15.79 L99.39,14.43 L99.39,10.41 L123,10.41 C138.31,10.41 145.9,15.69 145.9,26.54 C145.9,37.72 137.57,43.95 122.8,43.95 L116.5,43.95 L116.53,60.07 Z M116.53,38.93 L123.37,38.93 C129.81,38.93 133.87,34.32 133.87,26.87 C133.87,19.69 130.14,15.42 123.78,15.42 L116.53,15.42 L116.53,38.93 Z" id="Shape"></path>
            <path d="M200.74,61.15 L200.74,65.35 L185.9,65.35 L169.9,44.75 L167.39,44.75 L167.39,59.75 L172.67,61.11 L172.67,65.31 L150.27,65.31 L150.27,61.11 L155.55,59.75 L155.55,23.35 L150.55,21.99 L150.55,17.93 L175.2,17.93 C185.7,17.93 192.75,23.01 192.75,30.6 C192.75,39 186.99,42.8 181.75,44.15 L195.23,59.94 L200.74,61.15 Z M167.41,39.74 L171.88,39.74 C177.64,39.74 180.69,36.56 180.69,30.86 C180.69,25.51 177.84,22.93 171.88,22.93 L167.41,22.93 L167.41,39.74 Z" id="Shape"></path>
            <path d="M199.59,41.64 C199.59,26.87 209.41,16.91 225.27,16.91 C241.13,16.91 250.95,26.91 250.95,41.64 C250.95,56.37 241.13,66.37 225.27,66.37 C209.41,66.37 199.59,56.48 199.59,41.64 Z M238.48,41.64 C238.48,31.95 235.23,22.47 225.27,22.47 C215.31,22.47 212.05,32 212.05,41.64 C212.05,51.28 215.3,60.81 225.26,60.81 C235.22,60.81 238.48,51.33 238.48,41.64 L238.48,41.64 Z" id="Shape"></path>
            <path d="M270.79,60.07 L279.94,61.15 L279.94,65.35 L253.31,65.35 L253.31,61.15 L258.93,59.79 L258.93,15.79 L253.31,14.43 L253.31,10.41 L277.31,10.41 C292.62,10.41 300.21,15.69 300.21,26.54 C300.21,37.72 291.88,43.95 277.11,43.95 L270.81,43.95 L270.79,60.07 Z M270.79,38.93 L277.63,38.93 C284.07,38.93 288.13,34.32 288.13,26.87 C288.13,19.69 284.4,15.42 278.03,15.42 L270.78,15.42 L270.79,38.93 Z" id="Shape"></path>
            <path d="M354.26,22 L349.31,23.36 L349.31,47 C349.31,59.87 341.52,66.38 329.26,66.38 C315.64,66.38 308.53,58.52 308.53,46.38 L308.53,23.38 L303.58,22 L303.58,17.93 L325.58,17.93 L325.58,22 L320.5,23.36 L320.5,47.74 C320.5,54.99 324.84,59.8 331.95,59.8 C338.79,59.8 343.2,55.33 343.2,48.49 L343.2,23.35 L338.14,22 L338.14,17.93 L354.26,17.93 L354.26,22 Z" id="Shape"></path>
            <path d="M403.85,52.21 C403.85,61.09 396.74,65.35 381.85,65.35 L357.58,65.35 L357.58,61.15 L363.14,59.79 L363.14,23.35 L358.26,22 L358.26,17.93 L382.18,17.93 C394.78,17.93 401.69,21.72 401.69,29.65 C401.69,35.82 397.63,38.73 390.78,39.54 L390.78,39.81 C399.31,40.76 403.85,45.1 403.85,52.21 Z M375,38.32 L380.76,38.32 C386.86,38.32 389.76,35.54 389.76,30.53 C389.76,25.31 386.64,22.94 380.76,22.94 L375,22.94 L375,38.32 Z M391.8,51.73 C391.8,46.11 388.01,43.06 380.55,43.06 L375,43.06 L375,60.34 L381.64,60.34 C388.07,60.34 391.79,57.29 391.79,51.74 L391.8,51.73 Z" id="Shape"></path>
            <polygon id="Shape" points="451.07 48.62 446.67 65.35 408 65.35 408 61.15 413.28 59.79 413.28 23.35 407.65 22 407.65 17.93 430.41 17.93 430.41 22 425.13 23.36 425.13 60.36 439.29 59.55 447 47.26"></polygon>
            <polygon id="Shape" points="475.4 61.15 475.4 65.35 453 65.35 453 61.15 458.28 59.79 458.28 23.35 453 22 453 17.93 475.4 17.93 475.4 22 470.12 23.36 470.12 59.8"></polygon>
            <path d="M478,41.78 C478,25.93 490.13,16.92 505,16.92 C511.450658,16.9478882 517.772521,18.7279644 523.29,22.07 L521.29,35.28 L517.09,35.28 L515.4,26.2 C512.786603,23.4370871 509.110606,21.9324422 505.31,22.07 C496.16,22.07 490.61,28.64 490.61,40.29 C490.61,53.5 497.45,59.6 505.85,59.6 C512.02,59.6 516.08,56.21 519.26,50.05 L523.53,52.05 C519.26,62.05 511.88,66.41 502.46,66.41 C488.4,66.37 478,56.48 478,41.78 Z" id="Shape"></path>
            <path d="M574.24,61.15 L574.24,65.35 L551.48,65.35 L551.48,61.15 L557,60 L554.15,51.87 L537.55,51.87 L534.43,60.07 L539.85,61.22 L539.78,65.42 L523.25,65.35 L523.25,61.15 L527.52,60.07 L542.42,22.74 L538.42,21.45 L538.42,17.93 L552.11,17.93 L569.3,60 L574.24,61.15 Z M546.67,30.15 L546.2,28.59 L545.73,30.15 L539.5,46.88 L552.44,46.88 L546.67,30.15 Z" id="Shape"></path>
        </g>
    </g>
</svg>