<?xml version="1.0" encoding="utf-8"?>
<!-- Generator: Adobe Illustrator 22.1.0, SVG Export Plug-In . SVG Version: 6.00 Build 0)  -->
<svg version="1.1"
	 id="svg2" xmlns:cc="http://creativecommons.org/ns#" xmlns:dc="http://purl.org/dc/elements/1.1/" xmlns:rdf="http://www.w3.org/1999/02/22-rdf-syntax-ns#" xmlns:svg="http://www.w3.org/2000/svg"
	 xmlns="http://www.w3.org/2000/svg" xmlns:xlink="http://www.w3.org/1999/xlink" x="0px" y="0px" viewBox="0 0 47.5 47.5"
	 style="enable-background:new 0 0 47.5 47.5;" xml:space="preserve">
<style type="text/css">
	.st0{fill:none;}
	.st1{fill:#FFDC5D;}
	.st2{fill:#5CB0EE;}
</style>
<rect class="st0" width="47.5" height="47.5"/>
<path id="path22" class="st1" d="M42.9,22.9c0,0,1.4-2.1-0.6-3.5c-2.1-1.4-3.5,0.6-3.5,0.6l-6.6,9.6c-0.2-0.4-0.5-0.8-0.7-1.1
	l9.1-13.3c0,0,1.4-2.1-0.6-3.5c-2.1-1.4-3.5,0.6-3.5,0.6l-8.6,12.5c-0.3-0.3-0.6-0.5-1-0.8l9.9-14.5c0,0,1.4-2.1-0.6-3.5
	c-2.1-1.4-3.5,0.6-3.5,0.6l-9.9,14.5c-0.4-0.2-0.7-0.4-1.1-0.6L31,7.2c0,0,1.4-2.1-0.6-3.5c-2.1-1.4-3.5,0.6-3.5,0.6L17,18.7
	l-0.8,1.1l-0.7,1c6.2,4.2,6.8,12.2,3.2,17.4c-0.7,1-1.7,0.3-1.7,0.3c4.2-6.2,2.9-13.1-3.2-17.4l1.8-9.1c0,0,0.7-2.4-1.7-3.1
	c-2.4-0.7-3.1,1.7-3.1,1.7l-2.1,6.3c-0.8,2.5-1.7,5-2.9,7.3C2.5,30.8,4.5,39,10.7,43.3c6.8,4.7,16.2,2.9,20.9-3.9
	c0.2-0.4,0.5-0.7,0.7-1.1l0.1,0L42.9,22.9z"/>
<path id="path26" class="st2" d="M3.8,10H1.3c0-4.8,3.9-8.7,8.7-8.7v2.5C6.6,3.8,3.8,6.6,3.8,10"/>
<path id="path30" class="st2" d="M6.2,16.2H3.8c0-6.9,5.6-12.5,12.5-12.5v2.5C10.7,6.2,6.2,10.7,6.2,16.2"/>
<path id="path34" class="st2" d="M37.5,46.2v-2.5c3.8,0,6.2-2.5,6.2-6.2h2.5C46.2,42.5,42.5,46.2,37.5,46.2"/>
<path id="path38" class="st2" d="M31.2,43.8v-2.5c5,0,10.1-5.1,10.1-10.1h2.5C43.8,38.8,38.8,43.8,31.2,43.8"/>
</svg>
